<svg xmlns="http://www.w3.org/2000/svg" xml:space="preserve" width="154" height="216" version="1.1" viewBox="0 0 21000 29700" xmlns:xlink="http://www.w3.org/1999/xlink" xmlns:xodm="http://www.corel.com/coreldraw/odm/2003" xmlns:svg="http://www.w3.org/2000/svg" enable-background="new 0 0 400 300" style="shape-rendering:geometricPrecision;text-rendering:geometricPrecision;image-rendering:optimizeQuality;fill-rule:evenodd;clip-rule:evenodd;" class=""><path id="L" d="M4576.59 2650.99l-105.27 135c574.86,237.65 871.9,712.16 871.9,1220.42 0,114.36 -19.38,225.09 -54.52,330.88 -26,73.76 -58.06,116.08 -151.18,117.58 -667.99,14.27 -1046.23,24.75 -1716.02,7.11 -86.36,-1.79 -114.29,-33.25 -128.36,-101.7 -10.72,-40.64 -1.79,-74.23 26.2,-125.13 355.24,-629.32 974.13,-1348.64 1095.59,-1519.35 23.1,-31.51 12.22,-95.06 -66.99,-116.08 -231.85,-68.54 -492.06,-96.38 -755.86,-96.38 -1194.23,4.84 -2036.54,676.54 -2055.98,1510.18 47.84,1000.71 918.01,1517.52 2055.98,1517.52 696.33,0 1334.25,-246.2 1707.47,-636.53l-344.79 13.92c-318.36,283.12 -828.42,434.5 -1355.95,434.5 -961.57,0 -1744.39,-478.2 -1744.39,-1336.57 0,-738.32 782.73,-1339.71 1744.39,-1339.71l44.16 1.79c64.82,1.79 57.91,47.31 47.23,63.02 -191.3,297.57 -643.24,821.55 -972.35,1396.36 -54.47,93.18 -95.06,161.72 -95.06,263.94 0,138.52 86.57,302.47 260.36,372.78 114.3,45.72 186.27,47.22 309.67,49.01 916.13,28.27 1283.35,3.49 2103.11,-24.26 47.31,-0.09 91.45,-32.04 107.25,-51.39 158.43,-165.19 249.82,-462.25 249.82,-724.44 -0.06,-583.65 -420.49,-1109.54 -1076.41,-1362.47z" fill="currentColor" class="fil0"></path><path id="lexus_1_" d="M18832.34 3827.25l-1480.6 0c13.92,-188.21 175.96,-337.65 374.53,-337.65l1492.86 0 0 -314.69 -1501.32 0c-561.42,0 -1020.15,428.99 -1043.2,966.97l1809.69 -1.88c117.49,0 212.46,77.53 212.46,170.71 0,95.02 -95.11,170.61 -212.46,170.61l-1992.43 -0.09 0 -1306.26 -591 -0.02 0 1297.8 -1186.78 0c-174.19,-28.31 -228.76,-154.75 -228.76,-401.1l0.09 -896.7 -952.9 0 -856.69 555.43 -745.46 -555.43 -2293.09 0c-508.27,0 -931.88,349.78 -1025.17,815.64l460.64 0c-173.85,117.88 -307.53,285.06 -381.49,482.26l-1458.03 -0.2c-171.87,-28.32 -228.26,-154.71 -228.26,-401l0.09 -896.76 -589.3 0.02 0 836.87c-24.7,554.17 275.87,752.83 618.94,784.28l4580.83 -0.09 844.16 -545.12 736.92 552.48 901.62 -0.03 -1147.86 -863.45 944 -611.88 1.79 683.8c-24.25,554.17 306,752.82 649.14,784.28l4286.84 -0.09c295.36,0 534.75,-216.1 534.75,-485.22 0.29,-267.5 -239.21,-483.49 -534.55,-483.49zm-7290.31 648.65l-2147.34 0c8.93,-194.79 175.97,-349.78 379.85,-349.78l1290.75 -1.7 0 -320.06 -1688.23 1.79c28.31,-175.97 184.68,-311.11 374.68,-311.11l1456.16 0.02 0 -179.55 984.47 733.34 -650.34 427.05z" fill="currentColor" class="fil0"></path><path d="M1852.63 7620.15l0 -114.39 38.13 0c65.37,0 98.05,-30.56 98.05,-91.99l0 -1122.72 915.12 0 0 1325.47 -125.29 0 0 -1209.26 -664.54 0 0 1011.65c0,75.05 -19.98,127.71 -59.92,157.97 -39.65,29.96 -93.21,45.09 -159.79,45.09l-22.39 0c-5.75,0 -12.41,-0.61 -19.37,-1.82zm1396.72 -3.63l0 -1325.47 699.04 0 0 116.21 -573.76 0 0 475.71 537.45 0 0 116.21 -537.45 0 0 501.13 608.26 0 0 116.21 -733.54 0zm1030.54 0l0 -1325.47 125.28 0 0 584.36 407.02 -438.8c54.17,-59.92 105.61,-98.96 154.34,-117.72 48.42,-18.46 98.04,-27.84 148.88,-27.84l0 116.21c-39.03,0 -70.51,5.44 -94.11,16.04 -47.81,20.57 -91.69,52.95 -131.03,96.53l-323.81 346.8 606.45 749.89 -159.48 0 -532 -658.8 -76.26 81.71 0 577.09 -125.28 0zm1011.77 -386.14c-35.1,-84.13 -52.65,-174.31 -52.65,-270.24 0,-96.23 16.34,-185.81 49.02,-268.72 32.68,-82.92 78.08,-155.85 135.88,-218.8 57.8,-62.94 126.19,-112.57 205.17,-148.89 78.99,-36.31 168.86,-54.47 269.94,-54.47 199.73,0 356.18,69.61 469.06,208.51l-92.3 81.7c-102.29,-112.27 -231.81,-168.55 -389.17,-168.55 -147.07,0 -269.63,54.16 -367.98,162.2 -98.05,107.73 -147.08,239.37 -147.08,394.92 0,167.34 52.36,305.34 157.06,414.28 47.82,49.63 102.89,87.76 165.23,114.39 62.34,26.63 126.5,39.95 192.77,39.95 159.48,0 298.08,-65.37 415.8,-196.1l91.39 76.26c-52.05,66.58 -119.84,122.26 -203.06,167.35 -92.3,49.32 -187.92,74.14 -287.18,74.14 -99.26,0 -187.63,-16.65 -265.1,-49.93 -77.47,-33.59 -145.86,-80.5 -205.17,-141.02 -59.32,-60.53 -106.52,-132.85 -141.63,-216.98zm1276.57 -939.33l133.76 0 325.32 858.83 313.81 -858.83 133.15 0 -446.96 1179.61c-23,56.28 -45.4,93.81 -67.19,113.18 -22.09,19.06 -44.48,32.98 -67.48,41.76 -23,8.47 -52.05,12.71 -87.46,12.71 -35.1,0 -70.2,-6.66 -105,-20.28l0 -116.2c27.84,16.04 53.86,23.9 78.07,23.9 24.21,0 44.18,-3.63 59.31,-11.19 15.44,-7.27 28.45,-17.25 39.04,-29.66 17.25,-19.37 32.99,-49.63 46.91,-90.48l32.98 -81.41 -388.26 -1021.94zm1151.59 939.33c-35.1,-84.13 -52.65,-174.31 -52.65,-270.24 0,-96.23 16.34,-185.81 49.02,-268.72 32.68,-82.92 78.08,-155.85 135.88,-218.8 57.8,-62.94 126.19,-112.57 205.17,-148.89 78.99,-36.31 168.86,-54.47 269.94,-54.47 199.73,0 356.18,69.61 469.06,208.51l-92.3 81.7c-102.29,-112.27 -231.81,-168.55 -389.17,-168.55 -147.07,0 -269.63,54.16 -367.98,162.2 -98.05,107.73 -147.08,239.37 -147.08,394.92 0,167.34 52.36,305.34 157.06,414.28 47.82,49.63 102.89,87.76 165.23,114.39 62.34,26.63 126.5,39.95 192.77,39.95 159.48,0 298.08,-65.37 415.8,-196.1l91.39 76.26c-52.05,66.58 -119.84,122.26 -203.06,167.35 -92.3,49.32 -187.92,74.14 -287.18,74.14 -99.26,0 -187.63,-16.65 -265.1,-49.93 -77.47,-33.59 -145.86,-80.5 -205.17,-141.02 -59.32,-60.53 -106.52,-132.85 -141.63,-216.98zm1697.21 0c-35.1,-84.13 -52.65,-174.31 -52.65,-270.24 0,-96.23 16.34,-185.81 49.02,-268.72 32.68,-82.92 78.08,-155.85 135.88,-218.8 57.8,-62.94 126.19,-112.57 205.17,-148.89 78.99,-36.31 168.86,-54.47 269.94,-54.47 199.73,0 356.18,69.61 469.06,208.51l-92.3 81.7c-102.29,-112.27 -231.81,-168.55 -389.17,-168.55 -147.07,0 -269.63,54.16 -367.98,162.2 -98.05,107.73 -147.08,239.37 -147.08,394.92 0,167.34 52.36,305.34 157.06,414.28 47.82,49.63 102.89,87.76 165.23,114.39 62.34,26.63 126.5,39.95 192.77,39.95 159.48,0 298.08,-65.37 415.8,-196.1l91.39 76.26c-52.05,66.58 -119.84,122.26 -203.06,167.35 -92.3,49.32 -187.92,74.14 -287.18,74.14 -99.26,0 -187.63,-16.65 -265.1,-49.93 -77.47,-33.59 -145.86,-80.5 -205.17,-141.02 -59.32,-60.53 -106.52,-132.85 -141.63,-216.98zm1377.35 386.14l0 -1325.47 125.28 0 0 1325.47 -125.28 0zm389.59 -1209.26l0 -116.21 742.63 0 0 116.21 -310.49 0 0 1209.26 -125.28 0 0 -1209.26 -306.86 0zm1008.46 1209.26l0 -1325.47 125.28 0 0 1325.47 -125.28 0zm1123.75 0l0 -1325.47 916.93 0 0 1325.47 -125.29 0 0 -1209.26 -666.36 0 0 1209.26 -125.28 0zm1152.19 3.63l0 -114.39 38.13 0c65.37,0 98.05,-30.56 98.05,-91.99l0 -1122.72 915.12 0 0 1325.47 -125.29 0 0 -1209.26 -664.54 0 0 1011.65c0,75.05 -19.98,127.71 -59.92,157.97 -39.65,29.96 -93.21,45.09 -159.79,45.09l-22.39 0c-5.75,0 -12.41,-0.61 -19.37,-1.82zm1305.63 -3.63l499.92 -1338.18 76.26 0 501.14 1338.18 -140.11 0 -170.38 -472.08 -461.79 0 -170.38 472.08 -134.66 0zm349.22 -588.29l373.43 0 -186.11 -526.25 -187.32 526.25zm938.24 411.56l85.04 -86.55c95.02,112.58 216.97,168.86 365.26,168.86 101.68,0 182.48,-26.93 242.09,-80.49 57.8,-52.36 86.85,-122.87 86.85,-211.23 0,-88.06 -30.86,-155.24 -92.9,-200.94 -61.74,-45.69 -142.84,-68.39 -243.31,-68.39l-167.65 0 0 -112.58 165.84 0c86.85,0 157.06,-20.88 210.62,-62.94 53.56,-41.76 80.19,-100.77 80.19,-177.03 0,-94.42 -49.93,-161.9 -149.79,-202.76 -33.59,-13.61 -72.03,-20.27 -115.3,-20.27 -75.05,0 -138.6,17.25 -190.95,51.75 -52.35,34.49 -92.3,73.53 -120.14,117.41l-102.89 -60.22c62.64,-102.28 153.73,-170.68 272.96,-205.78 43.27,-13.01 94.72,-19.37 154.34,-19.37 59.61,0 114.08,9.99 163.11,30.26 49.02,19.98 89.57,45.7 121.04,76.87 62.04,60.83 92.91,132.24 92.91,213.65 0,81.4 -18.16,147.07 -54.47,197.31 -36.32,50.23 -83.53,87.45 -141.33,111.66 71.42,24.21 129.83,64.16 175.22,120.14 45.09,55.99 67.79,127.1 67.79,213.04 0,115 -34.8,209.11 -104.41,282.65 -81.4,82.31 -197.91,123.47 -349.82,123.47 -144.66,0 -269.03,-40.85 -372.22,-122.56 -30.27,-23.61 -56.29,-49.03 -78.08,-75.96zm1100.75 176.73l499.92 -1338.18 76.26 0 501.14 1338.18 -140.11 0 -170.38 -472.08 -461.79 0 -170.38 472.08 -134.66 0zm349.22 -588.29l373.43 0 -186.11 -526.25 -187.32 526.25z" fill="currentColor" class="fil0"></path></svg>